<svg width="1668pt" height="1834pt" viewBox="0.00 0.00 1668.21 1834.40" xmlns="http://www.w3.org/2000/svg" xmlns:xlink="http://www.w3.org/1999/xlink">
<g id="graph0" class="graph" transform="scale(1 1) rotate(0) translate(4 1830.4)">
<title>CFG</title>
<polygon fill="white" stroke="none" points="-4,4 -4,-1830.4 1664.21,-1830.4 1664.21,4 -4,4"/>
<!-- 0 -->
<g id="node1" class="node">
<title>0</title>
<polygon fill="none" stroke="black" points="1278.25,-1826.4 1215.59,-1826.4 1215.59,-1784.8 1278.25,-1784.8 1278.25,-1826.4"/>
<text text-anchor="middle" x="1246.92" y="-1809.8" font-family="Times,serif" font-size="14.00">Block0</text>
<text text-anchor="middle" x="1246.92" y="-1793" font-family="Times,serif" font-size="14.00">ENTRY</text>
</g>
<!-- 2 -->
<g id="node2" class="node">
<title>2</title>
<polygon fill="none" stroke="black" points="1290.89,-1748.8 1202.95,-1748.8 1202.95,-1707.2 1290.89,-1707.2 1290.89,-1748.8"/>
<text text-anchor="middle" x="1246.92" y="-1732.2" font-family="Times,serif" font-size="14.00">Block2</text>
<text text-anchor="middle" x="1246.92" y="-1715.4" font-family="Times,serif" font-size="14.00">DECLARE: </text>
</g>
<!-- 0&#45;&gt;2 -->
<g id="edge1" class="edge">
<title>0-&gt;2</title>
<path fill="none" stroke="black" d="M1246.92,-1784.34C1246.92,-1776.99 1246.92,-1768.51 1246.92,-1760.43"/>
<polygon fill="black" stroke="black" points="1250.42,-1760.57 1246.92,-1750.57 1243.42,-1760.57 1250.42,-1760.57"/>
</g>
<!-- 3 -->
<g id="node4" class="node">
<title>3</title>
<polygon fill="none" stroke="black" points="1382.13,-1671.2 1111.71,-1671.2 1111.71,-1629.6 1382.13,-1629.6 1382.13,-1671.2"/>
<text text-anchor="middle" x="1246.92" y="-1654.6" font-family="Times,serif" font-size="14.00">Block3</text>
<text text-anchor="middle" x="1246.92" y="-1637.8" font-family="Times,serif" font-size="14.00">DECLARE: v_exc_code:='DAYPSTDRDF7'</text>
</g>
<!-- 2&#45;&gt;3 -->
<g id="edge2" class="edge">
<title>2-&gt;3</title>
<path fill="none" stroke="black" d="M1246.92,-1706.74C1246.92,-1699.39 1246.92,-1690.91 1246.92,-1682.83"/>
<polygon fill="black" stroke="black" points="1250.42,-1682.97 1246.92,-1672.97 1243.42,-1682.97 1250.42,-1682.97"/>
</g>
<!-- 1 -->
<g id="node3" class="node">
<title>1</title>
<polygon fill="none" stroke="black" points="1231.14,-41.6 1174.7,-41.6 1174.7,0 1231.14,0 1231.14,-41.6"/>
<text text-anchor="middle" x="1202.92" y="-25" font-family="Times,serif" font-size="14.00">Block1</text>
<text text-anchor="middle" x="1202.92" y="-8.2" font-family="Times,serif" font-size="14.00">EXIT</text>
</g>
<!-- 4 -->
<g id="node5" class="node">
<title>4</title>
<polygon fill="none" stroke="black" points="1332.31,-1593.6 1161.53,-1593.6 1161.53,-1552 1332.31,-1552 1332.31,-1593.6"/>
<text text-anchor="middle" x="1246.92" y="-1577" font-family="Times,serif" font-size="14.00">Block4</text>
<text text-anchor="middle" x="1246.92" y="-1560.2" font-family="Times,serif" font-size="14.00">END_DECLARE_BLOCK</text>
</g>
<!-- 3&#45;&gt;4 -->
<g id="edge3" class="edge">
<title>3-&gt;4</title>
<path fill="none" stroke="black" d="M1246.92,-1629.14C1246.92,-1621.79 1246.92,-1613.31 1246.92,-1605.23"/>
<polygon fill="black" stroke="black" points="1250.42,-1605.37 1246.92,-1595.37 1243.42,-1605.37 1250.42,-1605.37"/>
</g>
<!-- 5 -->
<g id="node6" class="node">
<title>5</title>
<polygon fill="none" stroke="black" points="1275.14,-1516 1218.7,-1516 1218.7,-1474.4 1275.14,-1474.4 1275.14,-1516"/>
<text text-anchor="middle" x="1246.92" y="-1499.4" font-family="Times,serif" font-size="14.00">Block5</text>
<text text-anchor="middle" x="1246.92" y="-1482.6" font-family="Times,serif" font-size="14.00">EXIT</text>
</g>
<!-- 4&#45;&gt;5 -->
<g id="edge4" class="edge">
<title>4-&gt;5</title>
<path fill="none" stroke="black" d="M1246.92,-1551.54C1246.92,-1544.19 1246.92,-1535.71 1246.92,-1527.63"/>
<polygon fill="black" stroke="black" points="1250.42,-1527.77 1246.92,-1517.77 1243.42,-1527.77 1250.42,-1527.77"/>
</g>
<!-- 6 -->
<g id="node7" class="node">
<title>6</title>
<polygon fill="none" stroke="black" points="1303.53,-1438.4 1190.31,-1438.4 1190.31,-1396.8 1303.53,-1396.8 1303.53,-1438.4"/>
<text text-anchor="middle" x="1246.92" y="-1421.8" font-family="Times,serif" font-size="14.00">Block6</text>
<text text-anchor="middle" x="1246.92" y="-1405" font-family="Times,serif" font-size="14.00">BEGIN_BLOCK</text>
</g>
<!-- 5&#45;&gt;6 -->
<g id="edge5" class="edge">
<title>5-&gt;6</title>
<path fill="none" stroke="black" d="M1246.92,-1473.94C1246.92,-1466.59 1246.92,-1458.11 1246.92,-1450.03"/>
<polygon fill="black" stroke="black" points="1250.42,-1450.17 1246.92,-1440.17 1243.42,-1450.17 1250.42,-1450.17"/>
</g>
<!-- 7 -->
<g id="node8" class="node">
<title>7</title>
<polygon fill="none" stroke="black" points="1660.21,-1360.8 833.63,-1360.8 833.63,-1319.2 1660.21,-1319.2 1660.21,-1360.8"/>
<text text-anchor="middle" x="1246.92" y="-1344.2" font-family="Times,serif" font-size="14.00">Block7</text>
<text text-anchor="middle" x="1246.92" y="-1327.4" font-family="Times,serif" font-size="14.00">CALL: utilities.get_exception_info(v_exc_code,v_exc_category,v_sys_identifier,v_report_date,v_exc_type,v_act_code,v_sol_code,v_is_active)</text>
</g>
<!-- 6&#45;&gt;7 -->
<g id="edge6" class="edge">
<title>6-&gt;7</title>
<path fill="none" stroke="black" d="M1246.92,-1396.34C1246.92,-1388.99 1246.92,-1380.51 1246.92,-1372.43"/>
<polygon fill="black" stroke="black" points="1250.42,-1372.57 1246.92,-1362.57 1243.42,-1372.57 1250.42,-1372.57"/>
</g>
<!-- 8 -->
<g id="node9" class="node">
<title>8</title>
<polygon fill="none" stroke="black" points="1296.53,-1283.2 1197.31,-1283.2 1197.31,-1241.6 1296.53,-1241.6 1296.53,-1283.2"/>
<text text-anchor="middle" x="1246.92" y="-1266.6" font-family="Times,serif" font-size="14.00">Block8</text>
<text text-anchor="middle" x="1246.92" y="-1249.8" font-family="Times,serif" font-size="14.00">END_BLOCK</text>
</g>
<!-- 7&#45;&gt;8 -->
<g id="edge7" class="edge">
<title>7-&gt;8</title>
<path fill="none" stroke="black" d="M1246.92,-1318.74C1246.92,-1311.39 1246.92,-1302.91 1246.92,-1294.83"/>
<polygon fill="black" stroke="black" points="1250.42,-1294.97 1246.92,-1284.97 1243.42,-1294.97 1250.42,-1294.97"/>
</g>
<!-- 9 -->
<g id="node10" class="node">
<title>9</title>
<polygon fill="none" stroke="black" points="1326.47,-1205.6 1167.37,-1205.6 1167.37,-1164 1326.47,-1164 1326.47,-1205.6"/>
<text text-anchor="middle" x="1246.92" y="-1189" font-family="Times,serif" font-size="14.00">Block9</text>
<text text-anchor="middle" x="1246.92" y="-1172.2" font-family="Times,serif" font-size="14.00">NORMAL_FLOW_END</text>
</g>
<!-- 8&#45;&gt;9 -->
<g id="edge8" class="edge">
<title>8-&gt;9</title>
<path fill="none" stroke="black" d="M1246.92,-1241.14C1246.92,-1233.79 1246.92,-1225.31 1246.92,-1217.23"/>
<polygon fill="black" stroke="black" points="1250.42,-1217.37 1246.92,-1207.37 1243.42,-1217.37 1250.42,-1217.37"/>
</g>
<!-- 10 -->
<g id="node11" class="node">
<title>10</title>
<polygon fill="none" stroke="black" points="1324.14,-1128 1169.7,-1128 1169.7,-1086.4 1324.14,-1086.4 1324.14,-1128"/>
<text text-anchor="middle" x="1246.92" y="-1111.4" font-family="Times,serif" font-size="14.00">Block10</text>
<text text-anchor="middle" x="1246.92" y="-1094.6" font-family="Times,serif" font-size="14.00">EXCEPTION_SWITCH</text>
</g>
<!-- 9&#45;&gt;10 -->
<g id="edge9" class="edge">
<title>9-&gt;10</title>
<path fill="none" stroke="black" d="M1246.92,-1163.54C1246.92,-1156.19 1246.92,-1147.71 1246.92,-1139.63"/>
<polygon fill="black" stroke="black" points="1250.42,-1139.77 1246.92,-1129.77 1243.42,-1139.77 1250.42,-1139.77"/>
</g>
<!-- 12 -->
<g id="node12" class="node">
<title>12</title>
<polygon fill="none" stroke="black" points="1262.83,-1050.4 1143.01,-1050.4 1143.01,-1008.8 1262.83,-1008.8 1262.83,-1050.4"/>
<text text-anchor="middle" x="1202.92" y="-1033.8" font-family="Times,serif" font-size="14.00">Block12</text>
<text text-anchor="middle" x="1202.92" y="-1017" font-family="Times,serif" font-size="14.00">WHEN: OTHERS</text>
</g>
<!-- 10&#45;&gt;12 -->
<g id="edge10" class="edge">
<title>10-&gt;12</title>
<path fill="none" stroke="black" d="M1235.13,-1085.94C1230.55,-1078.08 1225.22,-1068.92 1220.23,-1060.34"/>
<polygon fill="black" stroke="black" points="1223.41,-1058.84 1215.35,-1051.96 1217.36,-1062.36 1223.41,-1058.84"/>
</g>
<!-- 14 -->
<g id="node13" class="node">
<title>14</title>
<polygon fill="none" stroke="black" points="1409.42,-972.8 1288.42,-972.8 1288.42,-931.2 1409.42,-931.2 1409.42,-972.8"/>
<text text-anchor="middle" x="1348.92" y="-956.2" font-family="Times,serif" font-size="14.00">Block14</text>
<text text-anchor="middle" x="1348.92" y="-939.4" font-family="Times,serif" font-size="14.00">NO_EXCEPTION</text>
</g>
<!-- 10&#45;&gt;14 -->
<g id="edge11" class="edge">
<title>10-&gt;14</title>
<path fill="none" stroke="black" d="M1260.25,-1086.17C1277.89,-1059.68 1309.11,-1012.79 1329.41,-982.31"/>
<polygon fill="black" stroke="black" points="1332.11,-984.56 1334.74,-974.29 1326.29,-980.68 1332.11,-984.56"/>
</g>
<!-- 13 -->
<g id="node16" class="node">
<title>13</title>
<polygon fill="none" stroke="black" points="1270.14,-972.8 1019.7,-972.8 1019.7,-931.2 1270.14,-931.2 1270.14,-972.8"/>
<text text-anchor="middle" x="1144.92" y="-956.2" font-family="Times,serif" font-size="14.00">Block13</text>
<text text-anchor="middle" x="1144.92" y="-939.4" font-family="Times,serif" font-size="14.00">CALL: utils.handleerror(sqlcode,sqlerrm)</text>
</g>
<!-- 12&#45;&gt;13 -->
<g id="edge13" class="edge">
<title>12-&gt;13</title>
<path fill="none" stroke="black" d="M1187.38,-1008.34C1181.22,-1000.31 1174.01,-990.92 1167.31,-982.19"/>
<polygon fill="black" stroke="black" points="1170.09,-980.06 1161.23,-974.25 1164.54,-984.32 1170.09,-980.06"/>
</g>
<!-- 11 -->
<g id="node14" class="node">
<title>11</title>
<polygon fill="none" stroke="black" points="1360.31,-895.2 1133.53,-895.2 1133.53,-853.6 1360.31,-853.6 1360.31,-895.2"/>
<text text-anchor="middle" x="1246.92" y="-878.6" font-family="Times,serif" font-size="14.00">Block11</text>
<text text-anchor="middle" x="1246.92" y="-861.8" font-family="Times,serif" font-size="14.00">AFTER_EXCEPTION_HANDLERS</text>
</g>
<!-- 14&#45;&gt;11 -->
<g id="edge15" class="edge">
<title>14-&gt;11</title>
<path fill="none" stroke="black" d="M1321.59,-930.74C1309.71,-921.94 1295.64,-911.51 1282.94,-902.1"/>
<polygon fill="black" stroke="black" points="1285.31,-899.5 1275.19,-896.35 1281.14,-905.12 1285.31,-899.5"/>
</g>
<!-- 15 -->
<g id="node15" class="node">
<title>15</title>
<polygon fill="none" stroke="black" points="1278.64,-817.6 1215.2,-817.6 1215.2,-776 1278.64,-776 1278.64,-817.6"/>
<text text-anchor="middle" x="1246.92" y="-801" font-family="Times,serif" font-size="14.00">Block15</text>
<text text-anchor="middle" x="1246.92" y="-784.2" font-family="Times,serif" font-size="14.00">EXIT</text>
</g>
<!-- 11&#45;&gt;15 -->
<g id="edge12" class="edge">
<title>11-&gt;15</title>
<path fill="none" stroke="black" d="M1246.92,-853.14C1246.92,-845.79 1246.92,-837.31 1246.92,-829.23"/>
<polygon fill="black" stroke="black" points="1250.42,-829.37 1246.92,-819.37 1243.42,-829.37 1250.42,-829.37"/>
</g>
<!-- 16 -->
<g id="node17" class="node">
<title>16</title>
<polygon fill="none" stroke="black" points="1303.53,-740 1190.31,-740 1190.31,-698.4 1303.53,-698.4 1303.53,-740"/>
<text text-anchor="middle" x="1246.92" y="-723.4" font-family="Times,serif" font-size="14.00">Block16</text>
<text text-anchor="middle" x="1246.92" y="-706.6" font-family="Times,serif" font-size="14.00">BEGIN_BLOCK</text>
</g>
<!-- 15&#45;&gt;16 -->
<g id="edge16" class="edge">
<title>15-&gt;16</title>
<path fill="none" stroke="black" d="M1246.92,-775.54C1246.92,-768.19 1246.92,-759.71 1246.92,-751.63"/>
<polygon fill="black" stroke="black" points="1250.42,-751.77 1246.92,-741.77 1243.42,-751.77 1250.42,-751.77"/>
</g>
<!-- 13&#45;&gt;11 -->
<g id="edge14" class="edge">
<title>13-&gt;11</title>
<path fill="none" stroke="black" d="M1172.25,-930.74C1184.12,-921.94 1198.19,-911.51 1210.9,-902.1"/>
<polygon fill="black" stroke="black" points="1212.7,-905.12 1218.65,-896.35 1208.53,-899.5 1212.7,-905.12"/>
</g>
<!-- 17 -->
<g id="node18" class="node">
<title>17</title>
<polygon fill="none" stroke="black" points="1296.53,-662.4 1197.31,-662.4 1197.31,-620.8 1296.53,-620.8 1296.53,-662.4"/>
<text text-anchor="middle" x="1246.92" y="-645.8" font-family="Times,serif" font-size="14.00">Block17</text>
<text text-anchor="middle" x="1246.92" y="-629" font-family="Times,serif" font-size="14.00">END_BLOCK</text>
</g>
<!-- 16&#45;&gt;17 -->
<g id="edge17" class="edge">
<title>16-&gt;17</title>
<path fill="none" stroke="black" d="M1246.92,-697.94C1246.92,-690.59 1246.92,-682.11 1246.92,-674.03"/>
<polygon fill="black" stroke="black" points="1250.42,-674.17 1246.92,-664.17 1243.42,-674.17 1250.42,-674.17"/>
</g>
<!-- 18 -->
<g id="node19" class="node">
<title>18</title>
<polygon fill="none" stroke="black" points="1350.63,-584.8 1143.21,-584.8 1143.21,-543.2 1350.63,-543.2 1350.63,-584.8"/>
<text text-anchor="middle" x="1246.92" y="-568.2" font-family="Times,serif" font-size="14.00">Block18</text>
<text text-anchor="middle" x="1246.92" y="-551.4" font-family="Times,serif" font-size="14.00">IF_CONDITION: v_is_active='Y'</text>
</g>
<!-- 17&#45;&gt;18 -->
<g id="edge18" class="edge">
<title>17-&gt;18</title>
<path fill="none" stroke="black" d="M1246.92,-620.34C1246.92,-612.99 1246.92,-604.51 1246.92,-596.43"/>
<polygon fill="black" stroke="black" points="1250.42,-596.57 1246.92,-586.57 1243.42,-596.57 1250.42,-596.57"/>
</g>
<!-- 20 -->
<g id="node20" class="node">
<title>20</title>
<polygon fill="none" stroke="black" points="1208.81,-507.2 1101.03,-507.2 1101.03,-465.6 1208.81,-465.6 1208.81,-507.2"/>
<text text-anchor="middle" x="1154.92" y="-490.6" font-family="Times,serif" font-size="14.00">Block20</text>
<text text-anchor="middle" x="1154.92" y="-473.8" font-family="Times,serif" font-size="14.00">THEN_BLOCK</text>
</g>
<!-- 18&#45;&gt;20 -->
<g id="edge19" class="edge">
<title>18-&gt;20</title>
<path fill="none" stroke="black" d="M1222.27,-542.74C1211.77,-534.11 1199.36,-523.92 1188.07,-514.65"/>
<polygon fill="black" stroke="black" points="1190.44,-512.06 1180.49,-508.41 1186,-517.47 1190.44,-512.06"/>
</g>
<!-- 19 -->
<g id="node21" class="node">
<title>19</title>
<polygon fill="none" stroke="black" points="1242.81,-196.8 1163.03,-196.8 1163.03,-155.2 1242.81,-155.2 1242.81,-196.8"/>
<text text-anchor="middle" x="1202.92" y="-180.2" font-family="Times,serif" font-size="14.00">Block19</text>
<text text-anchor="middle" x="1202.92" y="-163.4" font-family="Times,serif" font-size="14.00">AFTER_IF</text>
</g>
<!-- 18&#45;&gt;19 -->
<g id="edge20" class="edge">
<title>18-&gt;19</title>
<path fill="none" stroke="black" d="M1241.05,-543.17C1237.92,-513.97 1237.92,-457.67 1237.92,-409.8 1237.92,-409.8 1237.92,-409.8 1237.92,-330.2 1237.92,-286.52 1221.19,-238.47 1210.48,-208.04"/>
<polygon fill="black" stroke="black" points="1213.82,-206.99 1207.21,-198.71 1207.21,-209.31 1213.82,-206.99"/>
</g>
<!-- 18&#45;&gt;19 -->
<g id="edge21" class="edge">
<title>18-&gt;19</title>
<path fill="none" stroke="black" d="M1252.79,-543.17C1255.92,-513.97 1255.92,-457.67 1255.92,-409.8 1255.92,-409.8 1255.92,-409.8 1255.92,-330.2 1255.92,-286.14 1238.9,-237.62 1223.86,-207.24"/>
<polygon fill="black" stroke="black" points="1227.1,-205.86 1219.36,-198.62 1220.89,-209.11 1227.1,-205.86"/>
</g>
<!-- 21 -->
<g id="node24" class="node">
<title>21</title>
<polygon fill="none" stroke="black" points="1209.53,-429.6 1096.31,-429.6 1096.31,-388 1209.53,-388 1209.53,-429.6"/>
<text text-anchor="middle" x="1152.92" y="-413" font-family="Times,serif" font-size="14.00">Block21</text>
<text text-anchor="middle" x="1152.92" y="-396.2" font-family="Times,serif" font-size="14.00">BEGIN_BLOCK</text>
</g>
<!-- 20&#45;&gt;21 -->
<g id="edge23" class="edge">
<title>20-&gt;21</title>
<path fill="none" stroke="black" d="M1154.38,-465.14C1154.19,-457.79 1153.96,-449.31 1153.75,-441.23"/>
<polygon fill="black" stroke="black" points="1157.25,-441.27 1153.49,-431.37 1150.26,-441.46 1157.25,-441.27"/>
</g>
<!-- 24 -->
<g id="node23" class="node">
<title>24</title>
<polygon fill="none" stroke="black" points="1234.64,-119.2 1171.2,-119.2 1171.2,-77.6 1234.64,-77.6 1234.64,-119.2"/>
<text text-anchor="middle" x="1202.92" y="-102.6" font-family="Times,serif" font-size="14.00">Block24</text>
<text text-anchor="middle" x="1202.92" y="-85.8" font-family="Times,serif" font-size="14.00">EXIT</text>
</g>
<!-- 19&#45;&gt;24 -->
<g id="edge22" class="edge">
<title>19-&gt;24</title>
<path fill="none" stroke="black" d="M1202.92,-154.74C1202.92,-147.39 1202.92,-138.91 1202.92,-130.83"/>
<polygon fill="black" stroke="black" points="1206.42,-130.97 1202.92,-120.97 1199.42,-130.97 1206.42,-130.97"/>
</g>
<!-- insert -->
<g id="node22" class="node">
<title>insert</title>
<polygon fill="none" stroke="black" points="1349.92,-1823.6 1295.92,-1823.6 1295.92,-1787.6 1349.92,-1787.6 1349.92,-1823.6"/>
<text text-anchor="middle" x="1322.92" y="-1801.4" font-family="Times,serif" font-size="14.00">insert</text>
</g>
<!-- 24&#45;&gt;1 -->
<g id="edge29" class="edge">
<title>24-&gt;1</title>
<path fill="none" stroke="black" d="M1202.92,-77.14C1202.92,-69.79 1202.92,-61.31 1202.92,-53.23"/>
<polygon fill="black" stroke="black" points="1206.42,-53.37 1202.92,-43.37 1199.42,-53.37 1206.42,-53.37"/>
</g>
<!-- 22 -->
<g id="node25" class="node">
<title>22</title>
<polygon fill="none" stroke="black" points="1151.84,-352 0,-352 0,-310.4 1151.84,-310.4 1151.84,-352"/>
<text text-anchor="middle" x="575.92" y="-335.4" font-family="Times,serif" font-size="14.00">Block22</text>
<text text-anchor="middle" x="575.92" y="-318.6" font-family="Times,serif" font-size="14.00">CALL: dbms_output.put_line(replace(replace(replace('INFO,%1!,Create exceptions for code:%2!,exception category:%3!','%1!',utl_call_stack.dynamic_depth),'%2!',v_exc_code),'%3!',v_exc_category))</text>
</g>
<!-- 21&#45;&gt;22 -->
<g id="edge26" class="edge">
<title>21-&gt;22</title>
<path fill="none" stroke="black" d="M1096.02,-400.34C1014.41,-389.65 860.84,-369.53 741.64,-353.91"/>
<polygon fill="black" stroke="black" points="742.45,-350.49 732.08,-352.66 741.54,-357.43 742.45,-350.49"/>
</g>
<!-- 23 -->
<g id="node26" class="node">
<title>23</title>
<polygon fill="none" stroke="black" points="1209.53,-274.4 1110.31,-274.4 1110.31,-232.8 1209.53,-232.8 1209.53,-274.4"/>
<text text-anchor="middle" x="1159.92" y="-257.8" font-family="Times,serif" font-size="14.00">Block23</text>
<text text-anchor="middle" x="1159.92" y="-241" font-family="Times,serif" font-size="14.00">END_BLOCK</text>
</g>
<!-- 21&#45;&gt;23 -->
<g id="edge27" class="edge">
<title>21-&gt;23</title>
<path fill="none" stroke="black" d="M1156.5,-387.73C1158.21,-377.14 1160.07,-363.91 1160.92,-352 1162.49,-330.03 1162.2,-305.21 1161.54,-286.12"/>
<polygon fill="black" stroke="black" points="1165.04,-286.14 1161.14,-276.29 1158.05,-286.42 1165.04,-286.14"/>
</g>
<!-- 22&#45;&gt;23 -->
<g id="edge24" class="edge">
<title>22-&gt;23</title>
<path fill="none" stroke="black" d="M732.42,-309.94C852.75,-294.36 1012.51,-273.68 1098.64,-262.53"/>
<polygon fill="black" stroke="black" points="1099.07,-266.01 1108.53,-261.25 1098.17,-259.06 1099.07,-266.01"/>
</g>
<!-- 23&#45;&gt;19 -->
<g id="edge25" class="edge">
<title>23-&gt;19</title>
<path fill="none" stroke="black" d="M1165.39,-232.34C1169.19,-224.48 1174.21,-215.32 1179.39,-206.74"/>
<polygon fill="black" stroke="black" points="1182.32,-208.67 1184.67,-198.34 1176.39,-204.94 1182.32,-208.67"/>
</g>
<!-- 23&#45;&gt;19 -->
<g id="edge28" class="edge">
<title>23-&gt;19</title>
<path fill="none" stroke="black" d="M1177.5,-232.34C1182.53,-224.65 1187.8,-215.72 1192.31,-207.3"/>
<polygon fill="black" stroke="black" points="1195.43,-208.9 1196.86,-198.4 1189.2,-205.71 1195.43,-208.9"/>
</g>
</g>
</svg>