<svg width="1599pt" height="2145pt" viewBox="0.00 0.00 1598.92 2144.80" xmlns="http://www.w3.org/2000/svg" xmlns:xlink="http://www.w3.org/1999/xlink">
<g id="graph0" class="graph" transform="scale(1 1) rotate(0) translate(4 2140.8)">
<title>CFG</title>
<polygon fill="white" stroke="none" points="-4,4 -4,-2140.8 1594.92,-2140.8 1594.92,4 -4,4"/>
<!-- 0 -->
<g id="node1" class="node">
<title>0</title>
<polygon fill="none" stroke="black" points="1028.39,-2136.8 965.73,-2136.8 965.73,-2095.2 1028.39,-2095.2 1028.39,-2136.8"/>
<text text-anchor="middle" x="997.06" y="-2120.2" font-family="Times,serif" font-size="14.00">Block0</text>
<text text-anchor="middle" x="997.06" y="-2103.4" font-family="Times,serif" font-size="14.00">ENTRY</text>
</g>
<!-- 2 -->
<g id="node2" class="node">
<title>2</title>
<polygon fill="none" stroke="black" points="1107.59,-2059.2 886.53,-2059.2 886.53,-2017.6 1107.59,-2017.6 1107.59,-2059.2"/>
<text text-anchor="middle" x="997.06" y="-2042.6" font-family="Times,serif" font-size="14.00">Block2</text>
<text text-anchor="middle" x="997.06" y="-2025.8" font-family="Times,serif" font-size="14.00">DECLARE: v_scoreNUMBER:=85;</text>
</g>
<!-- 0&#45;&gt;2 -->
<g id="edge1" class="edge">
<title>0-&gt;2</title>
<path fill="none" stroke="black" d="M997.06,-2094.74C997.06,-2087.39 997.06,-2078.91 997.06,-2070.83"/>
<polygon fill="black" stroke="black" points="1000.56,-2070.97 997.06,-2060.97 993.56,-2070.97 1000.56,-2070.97"/>
</g>
<!-- 3 -->
<g id="node4" class="node">
<title>3</title>
<polygon fill="none" stroke="black" points="1115.31,-1981.6 878.81,-1981.6 878.81,-1940 1115.31,-1940 1115.31,-1981.6"/>
<text text-anchor="middle" x="997.06" y="-1965" font-family="Times,serif" font-size="14.00">Block3</text>
<text text-anchor="middle" x="997.06" y="-1948.2" font-family="Times,serif" font-size="14.00">DECLARE: v_statusVARCHAR2(50);</text>
</g>
<!-- 2&#45;&gt;3 -->
<g id="edge2" class="edge">
<title>2-&gt;3</title>
<path fill="none" stroke="black" d="M997.06,-2017.14C997.06,-2009.79 997.06,-2001.31 997.06,-1993.23"/>
<polygon fill="black" stroke="black" points="1000.56,-1993.37 997.06,-1983.37 993.56,-1993.37 1000.56,-1993.37"/>
</g>
<!-- 1 -->
<g id="node3" class="node">
<title>1</title>
<polygon fill="none" stroke="black" points="807.28,-41.6 750.84,-41.6 750.84,0 807.28,0 807.28,-41.6"/>
<text text-anchor="middle" x="779.06" y="-25" font-family="Times,serif" font-size="14.00">Block1</text>
<text text-anchor="middle" x="779.06" y="-8.2" font-family="Times,serif" font-size="14.00">EXIT</text>
</g>
<!-- 4 -->
<g id="node5" class="node">
<title>4</title>
<polygon fill="none" stroke="black" points="1123.46,-1904 870.66,-1904 870.66,-1862.4 1123.46,-1862.4 1123.46,-1904"/>
<text text-anchor="middle" x="997.06" y="-1887.4" font-family="Times,serif" font-size="14.00">Block4</text>
<text text-anchor="middle" x="997.06" y="-1870.6" font-family="Times,serif" font-size="14.00">DECLARE: v_categoryVARCHAR2(50);</text>
</g>
<!-- 3&#45;&gt;4 -->
<g id="edge3" class="edge">
<title>3-&gt;4</title>
<path fill="none" stroke="black" d="M997.06,-1939.54C997.06,-1932.19 997.06,-1923.71 997.06,-1915.63"/>
<polygon fill="black" stroke="black" points="1000.56,-1915.77 997.06,-1905.77 993.56,-1915.77 1000.56,-1915.77"/>
</g>
<!-- 5 -->
<g id="node6" class="node">
<title>5</title>
<polygon fill="none" stroke="black" points="1136.42,-1826.4 857.7,-1826.4 857.7,-1784.8 1136.42,-1784.8 1136.42,-1826.4"/>
<text text-anchor="middle" x="997.06" y="-1809.8" font-family="Times,serif" font-size="14.00">Block5</text>
<text text-anchor="middle" x="997.06" y="-1793" font-family="Times,serif" font-size="14.00">DECLARE: some_dateDATE:=SYSDATE+1;</text>
</g>
<!-- 4&#45;&gt;5 -->
<g id="edge4" class="edge">
<title>4-&gt;5</title>
<path fill="none" stroke="black" d="M997.06,-1861.94C997.06,-1854.59 997.06,-1846.11 997.06,-1838.03"/>
<polygon fill="black" stroke="black" points="1000.56,-1838.17 997.06,-1828.17 993.56,-1838.17 1000.56,-1838.17"/>
</g>
<!-- 6 -->
<g id="node7" class="node">
<title>6</title>
<polygon fill="none" stroke="black" points="1082.45,-1748.8 911.67,-1748.8 911.67,-1707.2 1082.45,-1707.2 1082.45,-1748.8"/>
<text text-anchor="middle" x="997.06" y="-1732.2" font-family="Times,serif" font-size="14.00">Block6</text>
<text text-anchor="middle" x="997.06" y="-1715.4" font-family="Times,serif" font-size="14.00">END_DECLARE_BLOCK</text>
</g>
<!-- 5&#45;&gt;6 -->
<g id="edge5" class="edge">
<title>5-&gt;6</title>
<path fill="none" stroke="black" d="M997.06,-1784.34C997.06,-1776.99 997.06,-1768.51 997.06,-1760.43"/>
<polygon fill="black" stroke="black" points="1000.56,-1760.57 997.06,-1750.57 993.56,-1760.57 1000.56,-1760.57"/>
</g>
<!-- 7 -->
<g id="node8" class="node">
<title>7</title>
<polygon fill="none" stroke="black" points="1053.67,-1671.2 940.45,-1671.2 940.45,-1629.6 1053.67,-1629.6 1053.67,-1671.2"/>
<text text-anchor="middle" x="997.06" y="-1654.6" font-family="Times,serif" font-size="14.00">Block7</text>
<text text-anchor="middle" x="997.06" y="-1637.8" font-family="Times,serif" font-size="14.00">BEGIN_BLOCK</text>
</g>
<!-- 6&#45;&gt;7 -->
<g id="edge6" class="edge">
<title>6-&gt;7</title>
<path fill="none" stroke="black" d="M997.06,-1706.74C997.06,-1699.39 997.06,-1690.91 997.06,-1682.83"/>
<polygon fill="black" stroke="black" points="1000.56,-1682.97 997.06,-1672.97 993.56,-1682.97 1000.56,-1682.97"/>
</g>
<!-- 8 -->
<g id="node9" class="node">
<title>8</title>
<polygon fill="none" stroke="black" points="1590.92,-1593.6 403.2,-1593.6 403.2,-1552 1590.92,-1552 1590.92,-1593.6"/>
<text text-anchor="middle" x="997.06" y="-1577" font-family="Times,serif" font-size="14.00">Block8</text>
<text text-anchor="middle" x="997.06" y="-1560.2" font-family="Times,serif" font-size="14.00">ASSIGNMENT: v_status:=CASEWHENv_score&gt;=90THEN(SELECT'Top'FROMdual)WHENv_score&gt;=70THEN(SELECT'Above Average'FROMdual)ELSE(SELECT'Needs Improvement'FROMdual)END</text>
</g>
<!-- 7&#45;&gt;8 -->
<g id="edge7" class="edge">
<title>7-&gt;8</title>
<path fill="none" stroke="black" d="M997.06,-1629.14C997.06,-1621.79 997.06,-1613.31 997.06,-1605.23"/>
<polygon fill="black" stroke="black" points="1000.56,-1605.37 997.06,-1595.37 993.56,-1605.37 1000.56,-1605.37"/>
</g>
<!-- 9 -->
<g id="node10" class="node">
<title>9</title>
<polygon fill="none" stroke="black" points="1449.71,-1516 544.41,-1516 544.41,-1474.4 1449.71,-1474.4 1449.71,-1516"/>
<text text-anchor="middle" x="997.06" y="-1499.4" font-family="Times,serif" font-size="14.00">Block9</text>
<text text-anchor="middle" x="997.06" y="-1482.6" font-family="Times,serif" font-size="14.00">ASSIGNMENT: v_category:=CASEWHENv_score&gt;=80THENCASEWHENSYSDATE&lt;some_dateTHEN'Early High'ELSE'Late High'ENDELSE'Low'END</text>
</g>
<!-- 8&#45;&gt;9 -->
<g id="edge8" class="edge">
<title>8-&gt;9</title>
<path fill="none" stroke="black" d="M997.06,-1551.54C997.06,-1544.19 997.06,-1535.71 997.06,-1527.63"/>
<polygon fill="black" stroke="black" points="1000.56,-1527.77 997.06,-1517.77 993.56,-1527.77 1000.56,-1527.77"/>
</g>
<!-- 10 -->
<g id="node11" class="node">
<title>10</title>
<polygon fill="none" stroke="black" points="1166.14,-1438.4 827.98,-1438.4 827.98,-1396.8 1166.14,-1396.8 1166.14,-1438.4"/>
<text text-anchor="middle" x="997.06" y="-1421.8" font-family="Times,serif" font-size="14.00">Block10</text>
<text text-anchor="middle" x="997.06" y="-1405" font-family="Times,serif" font-size="14.00">CALL: DBMS_OUTPUT.PUT_LINE('Status: '||v_status)</text>
</g>
<!-- 9&#45;&gt;10 -->
<g id="edge9" class="edge">
<title>9-&gt;10</title>
<path fill="none" stroke="black" d="M997.06,-1473.94C997.06,-1466.59 997.06,-1458.11 997.06,-1450.03"/>
<polygon fill="black" stroke="black" points="1000.56,-1450.17 997.06,-1440.17 993.56,-1450.17 1000.56,-1450.17"/>
</g>
<!-- 11 -->
<g id="node12" class="node">
<title>11</title>
<polygon fill="none" stroke="black" points="1182.83,-1360.8 811.29,-1360.8 811.29,-1319.2 1182.83,-1319.2 1182.83,-1360.8"/>
<text text-anchor="middle" x="997.06" y="-1344.2" font-family="Times,serif" font-size="14.00">Block11</text>
<text text-anchor="middle" x="997.06" y="-1327.4" font-family="Times,serif" font-size="14.00">CALL: DBMS_OUTPUT.PUT_LINE('Category: '||v_category)</text>
</g>
<!-- 10&#45;&gt;11 -->
<g id="edge10" class="edge">
<title>10-&gt;11</title>
<path fill="none" stroke="black" d="M997.06,-1396.34C997.06,-1388.99 997.06,-1380.51 997.06,-1372.43"/>
<polygon fill="black" stroke="black" points="1000.56,-1372.57 997.06,-1362.57 993.56,-1372.57 1000.56,-1372.57"/>
</g>
<!-- 12 -->
<g id="node13" class="node">
<title>12</title>
<polygon fill="none" stroke="black" points="1046.67,-1283.2 947.45,-1283.2 947.45,-1241.6 1046.67,-1241.6 1046.67,-1283.2"/>
<text text-anchor="middle" x="997.06" y="-1266.6" font-family="Times,serif" font-size="14.00">Block12</text>
<text text-anchor="middle" x="997.06" y="-1249.8" font-family="Times,serif" font-size="14.00">END_BLOCK</text>
</g>
<!-- 11&#45;&gt;12 -->
<g id="edge11" class="edge">
<title>11-&gt;12</title>
<path fill="none" stroke="black" d="M997.06,-1318.74C997.06,-1311.39 997.06,-1302.91 997.06,-1294.83"/>
<polygon fill="black" stroke="black" points="1000.56,-1294.97 997.06,-1284.97 993.56,-1294.97 1000.56,-1294.97"/>
</g>
<!-- 13 -->
<g id="node14" class="node">
<title>13</title>
<polygon fill="none" stroke="black" points="910.62,-1205.6 807.5,-1205.6 807.5,-1164 910.62,-1164 910.62,-1205.6"/>
<text text-anchor="middle" x="859.06" y="-1189" font-family="Times,serif" font-size="14.00">Block13</text>
<text text-anchor="middle" x="859.06" y="-1172.2" font-family="Times,serif" font-size="14.00">CASE_START</text>
</g>
<!-- 12&#45;&gt;13 -->
<g id="edge12" class="edge">
<title>12-&gt;13</title>
<path fill="none" stroke="black" d="M960.08,-1241.14C943.24,-1231.91 923.13,-1220.9 905.3,-1211.13"/>
<polygon fill="black" stroke="black" points="907.44,-1208.32 896.99,-1206.58 904.08,-1214.45 907.44,-1208.32"/>
</g>
<!-- 16 -->
<g id="node15" class="node">
<title>16</title>
<polygon fill="none" stroke="black" points="1418.37,-1205.6 1005.75,-1205.6 1005.75,-1164 1418.37,-1164 1418.37,-1205.6"/>
<text text-anchor="middle" x="1212.06" y="-1189" font-family="Times,serif" font-size="14.00">Block16</text>
<text text-anchor="middle" x="1212.06" y="-1172.2" font-family="Times,serif" font-size="14.00">INSERT: INSERTINTOscore_logVALUES('Insert: High',SYSDATE)</text>
</g>
<!-- 12&#45;&gt;16 -->
<g id="edge13" class="edge">
<title>12-&gt;16</title>
<path fill="none" stroke="black" d="M1046.93,-1243.87C1075.79,-1233.72 1112.53,-1220.8 1144.02,-1209.72"/>
<polygon fill="black" stroke="black" points="1144.78,-1213.17 1153.05,-1206.55 1142.46,-1206.56 1144.78,-1213.17"/>
</g>
<!-- 15 -->
<g id="node16" class="node">
<title>15</title>
<polygon fill="none" stroke="black" points="691.41,-1128 552.71,-1128 552.71,-1086.4 691.41,-1086.4 691.41,-1128"/>
<text text-anchor="middle" x="622.06" y="-1111.4" font-family="Times,serif" font-size="14.00">Block15</text>
<text text-anchor="middle" x="622.06" y="-1094.6" font-family="Times,serif" font-size="14.00">WHEN: v_score&gt;=90</text>
</g>
<!-- 13&#45;&gt;15 -->
<g id="edge14" class="edge">
<title>13-&gt;15</title>
<path fill="none" stroke="black" d="M807.05,-1167.21C774.57,-1156.85 732.24,-1143.35 696.28,-1131.87"/>
<polygon fill="black" stroke="black" points="697.37,-1128.55 686.78,-1128.84 695.24,-1135.22 697.37,-1128.55"/>
</g>
<!-- 17 -->
<g id="node17" class="node">
<title>17</title>
<polygon fill="none" stroke="black" points="848.41,-1128 709.71,-1128 709.71,-1086.4 848.41,-1086.4 848.41,-1128"/>
<text text-anchor="middle" x="779.06" y="-1111.4" font-family="Times,serif" font-size="14.00">Block17</text>
<text text-anchor="middle" x="779.06" y="-1094.6" font-family="Times,serif" font-size="14.00">WHEN: v_score&gt;=80</text>
</g>
<!-- 13&#45;&gt;17 -->
<g id="edge15" class="edge">
<title>13-&gt;17</title>
<path fill="none" stroke="black" d="M837.62,-1163.54C828.67,-1155.08 818.13,-1145.12 808.47,-1136"/>
<polygon fill="black" stroke="black" points="811.05,-1133.62 801.38,-1129.29 806.24,-1138.7 811.05,-1133.62"/>
</g>
<!-- 19 -->
<g id="node18" class="node">
<title>19</title>
<polygon fill="none" stroke="black" points="1013.4,-1128 866.72,-1128 866.72,-1086.4 1013.4,-1086.4 1013.4,-1128"/>
<text text-anchor="middle" x="940.06" y="-1111.4" font-family="Times,serif" font-size="14.00">Block19</text>
<text text-anchor="middle" x="940.06" y="-1094.6" font-family="Times,serif" font-size="14.00">CASE_ELSE_BLOCK</text>
</g>
<!-- 13&#45;&gt;19 -->
<g id="edge16" class="edge">
<title>13-&gt;19</title>
<path fill="none" stroke="black" d="M880.77,-1163.54C889.83,-1155.08 900.5,-1145.12 910.28,-1136"/>
<polygon fill="black" stroke="black" points="912.55,-1138.67 917.47,-1129.29 907.77,-1133.55 912.55,-1138.67"/>
</g>
<!-- 18 -->
<g id="node21" class="node">
<title>18</title>
<polygon fill="none" stroke="black" points="1548.92,-1128 1031.2,-1128 1031.2,-1086.4 1548.92,-1086.4 1548.92,-1128"/>
<text text-anchor="middle" x="1290.06" y="-1111.4" font-family="Times,serif" font-size="14.00">Block18</text>
<text text-anchor="middle" x="1290.06" y="-1094.6" font-family="Times,serif" font-size="14.00">UPDATE: UPDATEscore_logSETlog_time=SYSDATEWHERElog_textLIKE'%High%'</text>
</g>
<!-- 16&#45;&gt;18 -->
<g id="edge19" class="edge">
<title>16-&gt;18</title>
<path fill="none" stroke="black" d="M1232.96,-1163.54C1241.69,-1155.08 1251.97,-1145.12 1261.38,-1136"/>
<polygon fill="black" stroke="black" points="1263.54,-1138.78 1268.28,-1129.31 1258.67,-1133.75 1263.54,-1138.78"/>
</g>
<!-- 14 -->
<g id="node19" class="node">
<title>14</title>
<polygon fill="none" stroke="black" points="830.62,-1050.4 727.5,-1050.4 727.5,-1008.8 830.62,-1008.8 830.62,-1050.4"/>
<text text-anchor="middle" x="779.06" y="-1033.8" font-family="Times,serif" font-size="14.00">Block14</text>
<text text-anchor="middle" x="779.06" y="-1017" font-family="Times,serif" font-size="14.00">AFTER_CASE</text>
</g>
<!-- 15&#45;&gt;14 -->
<g id="edge18" class="edge">
<title>15-&gt;14</title>
<path fill="none" stroke="black" d="M664.13,-1085.94C683.39,-1076.67 706.41,-1065.58 726.77,-1055.78"/>
<polygon fill="black" stroke="black" points="728.29,-1058.93 735.78,-1051.44 725.25,-1052.63 728.29,-1058.93"/>
</g>
<!-- 17&#45;&gt;14 -->
<g id="edge20" class="edge">
<title>17-&gt;14</title>
<path fill="none" stroke="black" d="M779.06,-1085.94C779.06,-1078.59 779.06,-1070.11 779.06,-1062.03"/>
<polygon fill="black" stroke="black" points="782.56,-1062.17 779.06,-1052.17 775.56,-1062.17 782.56,-1062.17"/>
</g>
<!-- 19&#45;&gt;14 -->
<g id="edge22" class="edge">
<title>19-&gt;14</title>
<path fill="none" stroke="black" d="M896.92,-1085.94C877.07,-1076.62 853.34,-1065.48 832.39,-1055.64"/>
<polygon fill="black" stroke="black" points="833.95,-1052.51 823.41,-1051.43 830.98,-1058.85 833.95,-1052.51"/>
</g>
<!-- 21 -->
<g id="node20" class="node">
<title>21</title>
<polygon fill="none" stroke="black" points="872.08,-972.8 686.04,-972.8 686.04,-931.2 872.08,-931.2 872.08,-972.8"/>
<text text-anchor="middle" x="779.06" y="-956.2" font-family="Times,serif" font-size="14.00">Block21</text>
<text text-anchor="middle" x="779.06" y="-939.4" font-family="Times,serif" font-size="14.00">IF_CONDITION: v_score&gt;80</text>
</g>
<!-- 14&#45;&gt;21 -->
<g id="edge17" class="edge">
<title>14-&gt;21</title>
<path fill="none" stroke="black" d="M779.06,-1008.34C779.06,-1000.99 779.06,-992.51 779.06,-984.43"/>
<polygon fill="black" stroke="black" points="782.56,-984.57 779.06,-974.57 775.56,-984.57 782.56,-984.57"/>
</g>
<!-- 23 -->
<g id="node23" class="node">
<title>23</title>
<polygon fill="none" stroke="black" points="583.95,-895.2 476.17,-895.2 476.17,-853.6 583.95,-853.6 583.95,-895.2"/>
<text text-anchor="middle" x="530.06" y="-878.6" font-family="Times,serif" font-size="14.00">Block23</text>
<text text-anchor="middle" x="530.06" y="-861.8" font-family="Times,serif" font-size="14.00">THEN_BLOCK</text>
</g>
<!-- 21&#45;&gt;23 -->
<g id="edge23" class="edge">
<title>21-&gt;23</title>
<path fill="none" stroke="black" d="M712.33,-930.74C676.04,-919.72 631.33,-906.15 595.27,-895.2"/>
<polygon fill="black" stroke="black" points="596.42,-891.89 585.83,-892.33 594.38,-898.59 596.42,-891.89"/>
</g>
<!-- 22 -->
<g id="node24" class="node">
<title>22</title>
<polygon fill="none" stroke="black" points="818.95,-740 739.17,-740 739.17,-698.4 818.95,-698.4 818.95,-740"/>
<text text-anchor="middle" x="779.06" y="-723.4" font-family="Times,serif" font-size="14.00">Block22</text>
<text text-anchor="middle" x="779.06" y="-706.6" font-family="Times,serif" font-size="14.00">AFTER_IF</text>
</g>
<!-- 21&#45;&gt;22 -->
<g id="edge24" class="edge">
<title>21-&gt;22</title>
<path fill="none" stroke="black" d="M775.05,-930.92C771.69,-890.68 771.42,-799.9 774.25,-751.68"/>
<polygon fill="black" stroke="black" points="777.73,-752.13 774.93,-741.91 770.75,-751.64 777.73,-752.13"/>
</g>
<!-- 21&#45;&gt;22 -->
<g id="edge25" class="edge">
<title>21-&gt;22</title>
<path fill="none" stroke="black" d="M783.07,-930.92C786.43,-890.68 786.7,-799.9 783.87,-751.68"/>
<polygon fill="black" stroke="black" points="787.38,-751.64 783.19,-741.91 780.39,-752.13 787.38,-751.64"/>
</g>
<!-- 20 -->
<g id="node22" class="node">
<title>20</title>
<polygon fill="none" stroke="black" points="1466.47,-1050.4 1113.65,-1050.4 1113.65,-1008.8 1466.47,-1008.8 1466.47,-1050.4"/>
<text text-anchor="middle" x="1290.06" y="-1033.8" font-family="Times,serif" font-size="14.00">Block20</text>
<text text-anchor="middle" x="1290.06" y="-1017" font-family="Times,serif" font-size="14.00">DELETE: DELETEFROMscore_logWHERElog_text='Old'</text>
</g>
<!-- 18&#45;&gt;20 -->
<g id="edge21" class="edge">
<title>18-&gt;20</title>
<path fill="none" stroke="black" d="M1290.06,-1085.94C1290.06,-1078.59 1290.06,-1070.11 1290.06,-1062.03"/>
<polygon fill="black" stroke="black" points="1293.56,-1062.17 1290.06,-1052.17 1286.56,-1062.17 1293.56,-1062.17"/>
</g>
<!-- 24 -->
<g id="node26" class="node">
<title>24</title>
<polygon fill="none" stroke="black" points="742.12,-817.6 0,-817.6 0,-776 742.12,-776 742.12,-817.6"/>
<text text-anchor="middle" x="371.06" y="-801" font-family="Times,serif" font-size="14.00">Block24</text>
<text text-anchor="middle" x="371.06" y="-784.2" font-family="Times,serif" font-size="14.00">ASSIGNMENT: v_status:=CASEWHENv_score&gt;=95THEN'Outstanding'WHENv_score&gt;=85THEN'Excellent'ELSE'Good'END</text>
</g>
<!-- 23&#45;&gt;24 -->
<g id="edge27" class="edge">
<title>23-&gt;24</title>
<path fill="none" stroke="black" d="M487.45,-853.14C467.86,-843.82 444.42,-832.68 423.73,-822.84"/>
<polygon fill="black" stroke="black" points="425.41,-819.77 414.88,-818.63 422.41,-826.09 425.41,-819.77"/>
</g>
<!-- 25 -->
<g id="node25" class="node">
<title>25</title>
<polygon fill="none" stroke="black" points="830.62,-662.4 727.5,-662.4 727.5,-620.8 830.62,-620.8 830.62,-662.4"/>
<text text-anchor="middle" x="779.06" y="-645.8" font-family="Times,serif" font-size="14.00">Block25</text>
<text text-anchor="middle" x="779.06" y="-629" font-family="Times,serif" font-size="14.00">CASE_START</text>
</g>
<!-- 22&#45;&gt;25 -->
<g id="edge26" class="edge">
<title>22-&gt;25</title>
<path fill="none" stroke="black" d="M779.06,-697.94C779.06,-690.59 779.06,-682.11 779.06,-674.03"/>
<polygon fill="black" stroke="black" points="782.56,-674.17 779.06,-664.17 775.56,-674.17 782.56,-674.17"/>
</g>
<!-- 27 -->
<g id="node27" class="node">
<title>27</title>
<polygon fill="none" stroke="black" points="767.46,-507.2 636.66,-507.2 636.66,-465.6 767.46,-465.6 767.46,-507.2"/>
<text text-anchor="middle" x="702.06" y="-490.6" font-family="Times,serif" font-size="14.00">Block27</text>
<text text-anchor="middle" x="702.06" y="-473.8" font-family="Times,serif" font-size="14.00">WHEN: v_score&lt;50</text>
</g>
<!-- 25&#45;&gt;27 -->
<g id="edge29" class="edge">
<title>25-&gt;27</title>
<path fill="none" stroke="black" d="M768.99,-620.57C755.79,-594.31 732.52,-548 717.19,-517.5"/>
<polygon fill="black" stroke="black" points="720.43,-516.15 712.81,-508.79 714.17,-519.29 720.43,-516.15"/>
</g>
<!-- 28 -->
<g id="node28" class="node">
<title>28</title>
<polygon fill="none" stroke="black" points="916.4,-584.8 769.72,-584.8 769.72,-543.2 916.4,-543.2 916.4,-584.8"/>
<text text-anchor="middle" x="843.06" y="-568.2" font-family="Times,serif" font-size="14.00">Block28</text>
<text text-anchor="middle" x="843.06" y="-551.4" font-family="Times,serif" font-size="14.00">CASE_ELSE_BLOCK</text>
</g>
<!-- 25&#45;&gt;28 -->
<g id="edge30" class="edge">
<title>25-&gt;28</title>
<path fill="none" stroke="black" d="M796.21,-620.34C803.15,-612.14 811.29,-602.52 818.82,-593.63"/>
<polygon fill="black" stroke="black" points="821.32,-596.1 825.11,-586.21 815.97,-591.58 821.32,-596.1"/>
</g>
<!-- 24&#45;&gt;22 -->
<g id="edge28" class="edge">
<title>24-&gt;22</title>
<path fill="none" stroke="black" d="M480.4,-775.54C560.62,-760.68 665.93,-741.16 727.68,-729.72"/>
<polygon fill="black" stroke="black" points="728,-733.22 737.2,-727.96 726.73,-726.34 728,-733.22"/>
</g>
<!-- 26 -->
<g id="node29" class="node">
<title>26</title>
<polygon fill="none" stroke="black" points="830.62,-429.6 727.5,-429.6 727.5,-388 830.62,-388 830.62,-429.6"/>
<text text-anchor="middle" x="779.06" y="-413" font-family="Times,serif" font-size="14.00">Block26</text>
<text text-anchor="middle" x="779.06" y="-396.2" font-family="Times,serif" font-size="14.00">AFTER_CASE</text>
</g>
<!-- 27&#45;&gt;26 -->
<g id="edge32" class="edge">
<title>27-&gt;26</title>
<path fill="none" stroke="black" d="M722.69,-465.14C731.22,-456.77 741.25,-446.92 750.47,-437.87"/>
<polygon fill="black" stroke="black" points="752.87,-440.42 757.56,-430.91 747.97,-435.42 752.87,-440.42"/>
</g>
<!-- 29 -->
<g id="node31" class="node">
<title>29</title>
<polygon fill="none" stroke="black" points="928.83,-507.2 785.29,-507.2 785.29,-465.6 928.83,-465.6 928.83,-507.2"/>
<text text-anchor="middle" x="857.06" y="-490.6" font-family="Times,serif" font-size="14.00">Block29</text>
<text text-anchor="middle" x="857.06" y="-473.8" font-family="Times,serif" font-size="14.00">NULL_STATEMENT</text>
</g>
<!-- 28&#45;&gt;29 -->
<g id="edge33" class="edge">
<title>28-&gt;29</title>
<path fill="none" stroke="black" d="M846.81,-542.74C848.19,-535.31 849.78,-526.71 851.29,-518.55"/>
<polygon fill="black" stroke="black" points="854.69,-519.41 853.07,-508.94 847.81,-518.14 854.69,-519.41"/>
</g>
<!-- 30 -->
<g id="node30" class="node">
<title>30</title>
<polygon fill="none" stroke="black" points="872.08,-352 686.04,-352 686.04,-310.4 872.08,-310.4 872.08,-352"/>
<text text-anchor="middle" x="779.06" y="-335.4" font-family="Times,serif" font-size="14.00">Block30</text>
<text text-anchor="middle" x="779.06" y="-318.6" font-family="Times,serif" font-size="14.00">IF_CONDITION: v_score&lt;30</text>
</g>
<!-- 26&#45;&gt;30 -->
<g id="edge31" class="edge">
<title>26-&gt;30</title>
<path fill="none" stroke="black" d="M779.06,-387.54C779.06,-380.19 779.06,-371.71 779.06,-363.63"/>
<polygon fill="black" stroke="black" points="782.56,-363.77 779.06,-353.77 775.56,-363.77 782.56,-363.77"/>
</g>
<!-- 32 -->
<g id="node32" class="node">
<title>32</title>
<polygon fill="none" stroke="black" points="741.95,-274.4 634.17,-274.4 634.17,-232.8 741.95,-232.8 741.95,-274.4"/>
<text text-anchor="middle" x="688.06" y="-257.8" font-family="Times,serif" font-size="14.00">Block32</text>
<text text-anchor="middle" x="688.06" y="-241" font-family="Times,serif" font-size="14.00">THEN_BLOCK</text>
</g>
<!-- 30&#45;&gt;32 -->
<g id="edge35" class="edge">
<title>30-&gt;32</title>
<path fill="none" stroke="black" d="M754.67,-309.94C744.29,-301.31 732.02,-291.12 720.85,-281.85"/>
<polygon fill="black" stroke="black" points="723.29,-279.32 713.36,-275.62 718.82,-284.7 723.29,-279.32"/>
</g>
<!-- 31 -->
<g id="node33" class="node">
<title>31</title>
<polygon fill="none" stroke="black" points="818.95,-196.8 739.17,-196.8 739.17,-155.2 818.95,-155.2 818.95,-196.8"/>
<text text-anchor="middle" x="779.06" y="-180.2" font-family="Times,serif" font-size="14.00">Block31</text>
<text text-anchor="middle" x="779.06" y="-163.4" font-family="Times,serif" font-size="14.00">AFTER_IF</text>
</g>
<!-- 30&#45;&gt;31 -->
<g id="edge36" class="edge">
<title>30-&gt;31</title>
<path fill="none" stroke="black" d="M774.33,-310.17C771.95,-284.25 771.67,-238.81 773.49,-208.31"/>
<polygon fill="black" stroke="black" points="776.97,-208.77 774.22,-198.54 769.99,-208.26 776.97,-208.77"/>
</g>
<!-- 30&#45;&gt;31 -->
<g id="edge37" class="edge">
<title>30-&gt;31</title>
<path fill="none" stroke="black" d="M783.79,-310.17C786.17,-284.25 786.45,-238.81 784.63,-208.31"/>
<polygon fill="black" stroke="black" points="788.13,-208.26 783.9,-198.54 781.15,-208.77 788.13,-208.26"/>
</g>
<!-- 29&#45;&gt;26 -->
<g id="edge34" class="edge">
<title>29-&gt;26</title>
<path fill="none" stroke="black" d="M836.16,-465.14C827.43,-456.68 817.15,-446.72 807.74,-437.6"/>
<polygon fill="black" stroke="black" points="810.45,-435.35 800.84,-430.91 805.58,-440.38 810.45,-435.35"/>
</g>
<!-- 32&#45;&gt;31 -->
<g id="edge39" class="edge">
<title>32-&gt;31</title>
<path fill="none" stroke="black" d="M712.45,-232.34C722.83,-223.71 735.1,-213.52 746.27,-204.25"/>
<polygon fill="black" stroke="black" points="748.3,-207.1 753.76,-198.02 743.83,-201.72 748.3,-207.1"/>
</g>
<!-- 33 -->
<g id="node34" class="node">
<title>33</title>
<polygon fill="none" stroke="black" points="810.78,-119.2 747.34,-119.2 747.34,-77.6 810.78,-77.6 810.78,-119.2"/>
<text text-anchor="middle" x="779.06" y="-102.6" font-family="Times,serif" font-size="14.00">Block33</text>
<text text-anchor="middle" x="779.06" y="-85.8" font-family="Times,serif" font-size="14.00">EXIT</text>
</g>
<!-- 31&#45;&gt;33 -->
<g id="edge38" class="edge">
<title>31-&gt;33</title>
<path fill="none" stroke="black" d="M779.06,-154.74C779.06,-147.39 779.06,-138.91 779.06,-130.83"/>
<polygon fill="black" stroke="black" points="782.56,-130.97 779.06,-120.97 775.56,-130.97 782.56,-130.97"/>
</g>
<!-- 33&#45;&gt;1 -->
<g id="edge40" class="edge">
<title>33-&gt;1</title>
<path fill="none" stroke="black" d="M779.06,-77.14C779.06,-69.79 779.06,-61.31 779.06,-53.23"/>
<polygon fill="black" stroke="black" points="782.56,-53.37 779.06,-43.37 775.56,-53.37 782.56,-53.37"/>
</g>
</g>
</svg>