<svg width="797pt" height="1136pt" viewBox="0.00 0.00 796.80 1136.00" xmlns="http://www.w3.org/2000/svg" xmlns:xlink="http://www.w3.org/1999/xlink">
<g id="graph0" class="graph" transform="scale(1 1) rotate(0) translate(4 1132)">
<title>CFG</title>
<polygon fill="white" stroke="none" points="-4,4 -4,-1132 792.8,-1132 792.8,4 -4,4"/>
<!-- 0 -->
<g id="node1" class="node">
<title>0</title>
<polygon fill="none" stroke="black" points="427.89,-1128 365.23,-1128 365.23,-1086.4 427.89,-1086.4 427.89,-1128"/>
<text text-anchor="middle" x="396.56" y="-1111.4" font-family="Times,serif" font-size="14.00">Block0</text>
<text text-anchor="middle" x="396.56" y="-1094.6" font-family="Times,serif" font-size="14.00">ENTRY</text>
</g>
<!-- 2 -->
<g id="node2" class="node">
<title>2</title>
<polygon fill="none" stroke="black" points="502.8,-1050.4 290.31,-1050.4 290.31,-1008.8 502.8,-1008.8 502.8,-1050.4"/>
<text text-anchor="middle" x="396.56" y="-1033.8" font-family="Times,serif" font-size="14.00">Block2</text>
<text text-anchor="middle" x="396.56" y="-1017" font-family="Times,serif" font-size="14.00">DECLARE: counterNUMBER:=0;</text>
</g>
<!-- 0&#45;&gt;2 -->
<g id="edge1" class="edge">
<title>0-&gt;2</title>
<path fill="none" stroke="black" d="M396.56,-1085.94C396.56,-1078.59 396.56,-1070.11 396.56,-1062.03"/>
<polygon fill="black" stroke="black" points="400.06,-1062.17 396.56,-1052.17 393.06,-1062.17 400.06,-1062.17"/>
</g>
<!-- 3 -->
<g id="node4" class="node">
<title>3</title>
<polygon fill="none" stroke="black" points="481.94,-972.8 311.17,-972.8 311.17,-931.2 481.94,-931.2 481.94,-972.8"/>
<text text-anchor="middle" x="396.56" y="-956.2" font-family="Times,serif" font-size="14.00">Block3</text>
<text text-anchor="middle" x="396.56" y="-939.4" font-family="Times,serif" font-size="14.00">END_DECLARE_BLOCK</text>
</g>
<!-- 2&#45;&gt;3 -->
<g id="edge2" class="edge">
<title>2-&gt;3</title>
<path fill="none" stroke="black" d="M396.56,-1008.34C396.56,-1000.99 396.56,-992.51 396.56,-984.43"/>
<polygon fill="black" stroke="black" points="400.06,-984.57 396.56,-974.57 393.06,-984.57 400.06,-984.57"/>
</g>
<!-- 1 -->
<g id="node3" class="node">
<title>1</title>
<polygon fill="none" stroke="black" points="591.78,-41.6 535.34,-41.6 535.34,0 591.78,0 591.78,-41.6"/>
<text text-anchor="middle" x="563.56" y="-25" font-family="Times,serif" font-size="14.00">Block1</text>
<text text-anchor="middle" x="563.56" y="-8.2" font-family="Times,serif" font-size="14.00">EXIT</text>
</g>
<!-- 4 -->
<g id="node5" class="node">
<title>4</title>
<polygon fill="none" stroke="black" points="453.17,-895.2 339.95,-895.2 339.95,-853.6 453.17,-853.6 453.17,-895.2"/>
<text text-anchor="middle" x="396.56" y="-878.6" font-family="Times,serif" font-size="14.00">Block4</text>
<text text-anchor="middle" x="396.56" y="-861.8" font-family="Times,serif" font-size="14.00">BEGIN_BLOCK</text>
</g>
<!-- 3&#45;&gt;4 -->
<g id="edge3" class="edge">
<title>3-&gt;4</title>
<path fill="none" stroke="black" d="M396.56,-930.74C396.56,-923.39 396.56,-914.91 396.56,-906.83"/>
<polygon fill="black" stroke="black" points="400.06,-906.97 396.56,-896.97 393.06,-906.97 400.06,-906.97"/>
</g>
<!-- 5 -->
<g id="node6" class="node">
<title>5</title>
<polygon fill="none" stroke="black" points="552.32,-817.6 240.8,-817.6 240.8,-776 552.32,-776 552.32,-817.6"/>
<text text-anchor="middle" x="396.56" y="-801" font-family="Times,serif" font-size="14.00">Block5</text>
<text text-anchor="middle" x="396.56" y="-784.2" font-family="Times,serif" font-size="14.00">CALL: DBMS_OUTPUT.PUT_LINE('Loop ended')</text>
</g>
<!-- 4&#45;&gt;5 -->
<g id="edge4" class="edge">
<title>4-&gt;5</title>
<path fill="none" stroke="black" d="M396.56,-853.14C396.56,-845.79 396.56,-837.31 396.56,-829.23"/>
<polygon fill="black" stroke="black" points="400.06,-829.37 396.56,-819.37 393.06,-829.37 400.06,-829.37"/>
</g>
<!-- 6 -->
<g id="node7" class="node">
<title>6</title>
<polygon fill="none" stroke="black" points="446.17,-740 346.95,-740 346.95,-698.4 446.17,-698.4 446.17,-740"/>
<text text-anchor="middle" x="396.56" y="-723.4" font-family="Times,serif" font-size="14.00">Block6</text>
<text text-anchor="middle" x="396.56" y="-706.6" font-family="Times,serif" font-size="14.00">END_BLOCK</text>
</g>
<!-- 5&#45;&gt;6 -->
<g id="edge5" class="edge">
<title>5-&gt;6</title>
<path fill="none" stroke="black" d="M396.56,-775.54C396.56,-768.19 396.56,-759.71 396.56,-751.63"/>
<polygon fill="black" stroke="black" points="400.06,-751.77 396.56,-741.77 393.06,-751.77 400.06,-751.77"/>
</g>
<!-- 7 -->
<g id="node8" class="node">
<title>7</title>
<polygon fill="none" stroke="black" points="456.67,-662.4 336.45,-662.4 336.45,-620.8 456.67,-620.8 456.67,-662.4"/>
<text text-anchor="middle" x="396.56" y="-645.8" font-family="Times,serif" font-size="14.00">Block7</text>
<text text-anchor="middle" x="396.56" y="-629" font-family="Times,serif" font-size="14.00">LOOP_ENTRY_4</text>
</g>
<!-- 6&#45;&gt;7 -->
<g id="edge6" class="edge">
<title>6-&gt;7</title>
<path fill="none" stroke="black" d="M396.56,-697.94C396.56,-690.59 396.56,-682.11 396.56,-674.03"/>
<polygon fill="black" stroke="black" points="400.06,-674.17 396.56,-664.17 393.06,-674.17 400.06,-674.17"/>
</g>
<!-- 8 -->
<g id="node9" class="node">
<title>8</title>
<polygon fill="none" stroke="black" points="472.22,-584.8 320.9,-584.8 320.9,-543.2 472.22,-543.2 472.22,-584.8"/>
<text text-anchor="middle" x="396.56" y="-568.2" font-family="Times,serif" font-size="14.00">Block8</text>
<text text-anchor="middle" x="396.56" y="-551.4" font-family="Times,serif" font-size="14.00">LOOP_CONDITION_4</text>
</g>
<!-- 7&#45;&gt;8 -->
<g id="edge7" class="edge">
<title>7-&gt;8</title>
<path fill="none" stroke="black" d="M396.56,-620.34C396.56,-612.99 396.56,-604.51 396.56,-596.43"/>
<polygon fill="black" stroke="black" points="400.06,-596.57 396.56,-586.57 393.06,-596.57 400.06,-596.57"/>
</g>
<!-- 9 -->
<g id="node10" class="node">
<title>9</title>
<polygon fill="none" stroke="black" points="283.17,-507.2 169.94,-507.2 169.94,-465.6 283.17,-465.6 283.17,-507.2"/>
<text text-anchor="middle" x="226.56" y="-490.6" font-family="Times,serif" font-size="14.00">Block9</text>
<text text-anchor="middle" x="226.56" y="-473.8" font-family="Times,serif" font-size="14.00">LOOP_BODY_4</text>
</g>
<!-- 8&#45;&gt;9 -->
<g id="edge8" class="edge">
<title>8-&gt;9</title>
<path fill="none" stroke="black" d="M351,-542.74C329.86,-533.34 304.54,-522.08 282.27,-512.17"/>
<polygon fill="black" stroke="black" points="283.89,-509.06 273.33,-508.2 281.04,-515.46 283.89,-509.06"/>
</g>
<!-- 10 -->
<g id="node11" class="node">
<title>10</title>
<polygon fill="none" stroke="black" points="499.28,-507.2 393.84,-507.2 393.84,-465.6 499.28,-465.6 499.28,-507.2"/>
<text text-anchor="middle" x="446.56" y="-490.6" font-family="Times,serif" font-size="14.00">Block10</text>
<text text-anchor="middle" x="446.56" y="-473.8" font-family="Times,serif" font-size="14.00">LOOP_EXIT_4</text>
</g>
<!-- 8&#45;&gt;10 -->
<g id="edge9" class="edge">
<title>8-&gt;10</title>
<path fill="none" stroke="black" d="M409.96,-542.74C415.21,-534.8 421.34,-525.52 427.07,-516.86"/>
<polygon fill="black" stroke="black" points="429.86,-518.99 432.46,-508.72 424.02,-515.13 429.86,-518.99"/>
</g>
<!-- 11 -->
<g id="node12" class="node">
<title>11</title>
<polygon fill="none" stroke="black" points="293.69,-429.6 69.43,-429.6 69.43,-388 293.69,-388 293.69,-429.6"/>
<text text-anchor="middle" x="181.56" y="-413" font-family="Times,serif" font-size="14.00">Block11</text>
<text text-anchor="middle" x="181.56" y="-396.2" font-family="Times,serif" font-size="14.00">ASSIGNMENT: counter:=counter+1</text>
</g>
<!-- 9&#45;&gt;11 -->
<g id="edge10" class="edge">
<title>9-&gt;11</title>
<path fill="none" stroke="black" d="M214.5,-465.14C209.82,-457.28 204.37,-448.12 199.26,-439.54"/>
<polygon fill="black" stroke="black" points="202.39,-437.96 194.27,-431.15 196.38,-441.54 202.39,-437.96"/>
</g>
<!-- 13 -->
<g id="node13" class="node">
<title>13</title>
<polygon fill="none" stroke="black" points="553.3,-429.6 375.82,-429.6 375.82,-388 553.3,-388 553.3,-429.6"/>
<text text-anchor="middle" x="464.56" y="-413" font-family="Times,serif" font-size="14.00">Block13</text>
<text text-anchor="middle" x="464.56" y="-396.2" font-family="Times,serif" font-size="14.00">IF_CONDITION: counter=2</text>
</g>
<!-- 10&#45;&gt;13 -->
<g id="edge11" class="edge">
<title>10-&gt;13</title>
<path fill="none" stroke="black" d="M451.38,-465.14C453.15,-457.71 455.2,-449.11 457.14,-440.95"/>
<polygon fill="black" stroke="black" points="460.52,-441.86 459.43,-431.33 453.71,-440.24 460.52,-441.86"/>
</g>
<!-- 12 -->
<g id="node14" class="node">
<title>12</title>
<polygon fill="none" stroke="black" points="345.12,-352 0,-352 0,-310.4 345.12,-310.4 345.12,-352"/>
<text text-anchor="middle" x="172.56" y="-335.4" font-family="Times,serif" font-size="14.00">Block12</text>
<text text-anchor="middle" x="172.56" y="-318.6" font-family="Times,serif" font-size="14.00">CALL: DBMS_OUTPUT.PUT_LINE('Counter: '||counter)</text>
</g>
<!-- 11&#45;&gt;12 -->
<g id="edge12" class="edge">
<title>11-&gt;12</title>
<path fill="none" stroke="black" d="M179.15,-387.54C178.27,-380.19 177.26,-371.71 176.3,-363.63"/>
<polygon fill="black" stroke="black" points="179.78,-363.27 175.12,-353.76 172.83,-364.1 179.78,-363.27"/>
</g>
<!-- 15 -->
<g id="node15" class="node">
<title>15</title>
<polygon fill="none" stroke="black" points="691.44,-352 583.67,-352 583.67,-310.4 691.44,-310.4 691.44,-352"/>
<text text-anchor="middle" x="637.56" y="-335.4" font-family="Times,serif" font-size="14.00">Block15</text>
<text text-anchor="middle" x="637.56" y="-318.6" font-family="Times,serif" font-size="14.00">THEN_BLOCK</text>
</g>
<!-- 13&#45;&gt;15 -->
<g id="edge14" class="edge">
<title>13-&gt;15</title>
<path fill="none" stroke="black" d="M510.92,-387.54C532.43,-378.14 558.2,-366.88 580.87,-356.97"/>
<polygon fill="black" stroke="black" points="582.22,-360.2 589.98,-352.99 579.42,-353.79 582.22,-360.2"/>
</g>
<!-- 17 -->
<g id="node16" class="node">
<title>17</title>
<polygon fill="none" stroke="black" points="565.74,-352 363.37,-352 363.37,-310.4 565.74,-310.4 565.74,-352"/>
<text text-anchor="middle" x="464.56" y="-335.4" font-family="Times,serif" font-size="14.00">Block17</text>
<text text-anchor="middle" x="464.56" y="-318.6" font-family="Times,serif" font-size="14.00">ELSIF_CONDITION: counter=3</text>
</g>
<!-- 13&#45;&gt;17 -->
<g id="edge15" class="edge">
<title>13-&gt;17</title>
<path fill="none" stroke="black" d="M464.56,-387.54C464.56,-380.19 464.56,-371.71 464.56,-363.63"/>
<polygon fill="black" stroke="black" points="468.06,-363.77 464.56,-353.77 461.06,-363.77 468.06,-363.77"/>
</g>
<!-- 12&#45;&gt;8 -->
<g id="edge13" class="edge">
<title>12-&gt;8</title>
<path fill="none" stroke="black" d="M243.07,-352.49C263.95,-360.99 285.72,-372.57 302.56,-388 346.53,-428.29 373.99,-494 387.18,-532.4"/>
<polygon fill="black" stroke="black" points="383.72,-533.1 390.19,-541.49 390.37,-530.9 383.72,-533.1"/>
</g>
<!-- 16 -->
<g id="node19" class="node">
<title>16</title>
<polygon fill="none" stroke="black" points="788.8,-274.4 622.32,-274.4 622.32,-232.8 788.8,-232.8 788.8,-274.4"/>
<text text-anchor="middle" x="705.56" y="-257.8" font-family="Times,serif" font-size="14.00">Block16</text>
<text text-anchor="middle" x="705.56" y="-241" font-family="Times,serif" font-size="14.00">CONTINUE: CONTINUE</text>
</g>
<!-- 15&#45;&gt;16 -->
<g id="edge17" class="edge">
<title>15-&gt;16</title>
<path fill="none" stroke="black" d="M655.78,-309.94C663.23,-301.65 671.99,-291.92 680.06,-282.95"/>
<polygon fill="black" stroke="black" points="682.42,-285.55 686.51,-275.78 677.22,-280.87 682.42,-285.55"/>
</g>
<!-- 18 -->
<g id="node20" class="node">
<title>18</title>
<polygon fill="none" stroke="black" points="358.45,-274.4 250.67,-274.4 250.67,-232.8 358.45,-232.8 358.45,-274.4"/>
<text text-anchor="middle" x="304.56" y="-257.8" font-family="Times,serif" font-size="14.00">Block18</text>
<text text-anchor="middle" x="304.56" y="-241" font-family="Times,serif" font-size="14.00">ELSIF_BLOCK</text>
</g>
<!-- 17&#45;&gt;18 -->
<g id="edge19" class="edge">
<title>17-&gt;18</title>
<path fill="none" stroke="black" d="M421.68,-309.94C401.96,-300.62 378.38,-289.48 357.56,-279.64"/>
<polygon fill="black" stroke="black" points="359.18,-276.54 348.64,-275.43 356.19,-282.87 359.18,-276.54"/>
</g>
<!-- 20 -->
<g id="node21" class="node">
<title>20</title>
<polygon fill="none" stroke="black" points="578.74,-274.4 376.37,-274.4 376.37,-232.8 578.74,-232.8 578.74,-274.4"/>
<text text-anchor="middle" x="477.56" y="-257.8" font-family="Times,serif" font-size="14.00">Block20</text>
<text text-anchor="middle" x="477.56" y="-241" font-family="Times,serif" font-size="14.00">ELSIF_CONDITION: counter=4</text>
</g>
<!-- 17&#45;&gt;20 -->
<g id="edge20" class="edge">
<title>17-&gt;20</title>
<path fill="none" stroke="black" d="M468.04,-309.94C469.32,-302.51 470.8,-293.91 472.2,-285.75"/>
<polygon fill="black" stroke="black" points="475.61,-286.59 473.85,-276.14 468.71,-285.41 475.61,-286.59"/>
</g>
<!-- 14 -->
<g id="node17" class="node">
<title>14</title>
<polygon fill="none" stroke="black" points="602.45,-196.8 522.67,-196.8 522.67,-155.2 602.45,-155.2 602.45,-196.8"/>
<text text-anchor="middle" x="562.56" y="-180.2" font-family="Times,serif" font-size="14.00">Block14</text>
<text text-anchor="middle" x="562.56" y="-163.4" font-family="Times,serif" font-size="14.00">AFTER_IF</text>
</g>
<!-- 23 -->
<g id="node18" class="node">
<title>23</title>
<polygon fill="none" stroke="black" points="595.28,-119.2 531.84,-119.2 531.84,-77.6 595.28,-77.6 595.28,-119.2"/>
<text text-anchor="middle" x="563.56" y="-102.6" font-family="Times,serif" font-size="14.00">Block23</text>
<text text-anchor="middle" x="563.56" y="-85.8" font-family="Times,serif" font-size="14.00">EXIT</text>
</g>
<!-- 14&#45;&gt;23 -->
<g id="edge16" class="edge">
<title>14-&gt;23</title>
<path fill="none" stroke="black" d="M562.83,-154.74C562.92,-147.39 563.04,-138.91 563.14,-130.83"/>
<polygon fill="black" stroke="black" points="566.64,-131.01 563.27,-120.97 559.64,-130.92 566.64,-131.01"/>
</g>
<!-- 23&#45;&gt;1 -->
<g id="edge25" class="edge">
<title>23-&gt;1</title>
<path fill="none" stroke="black" d="M563.56,-77.14C563.56,-69.79 563.56,-61.31 563.56,-53.23"/>
<polygon fill="black" stroke="black" points="567.06,-53.37 563.56,-43.37 560.06,-53.37 567.06,-53.37"/>
</g>
<!-- 16&#45;&gt;8 -->
<g id="edge18" class="edge">
<title>16-&gt;8</title>
<path fill="none" stroke="black" d="M709.12,-274.85C711.72,-295.45 712.93,-327.71 700.56,-352 652.13,-447.07 538.59,-507.6 464.8,-538.38"/>
<polygon fill="black" stroke="black" points="463.55,-535.11 455.62,-542.14 466.2,-541.59 463.55,-535.11"/>
</g>
<!-- 19 -->
<g id="node22" class="node">
<title>19</title>
<polygon fill="none" stroke="black" points="348.13,-196.8 260.99,-196.8 260.99,-155.2 348.13,-155.2 348.13,-196.8"/>
<text text-anchor="middle" x="304.56" y="-180.2" font-family="Times,serif" font-size="14.00">Block19</text>
<text text-anchor="middle" x="304.56" y="-163.4" font-family="Times,serif" font-size="14.00">EXIT: EXIT</text>
</g>
<!-- 18&#45;&gt;19 -->
<g id="edge21" class="edge">
<title>18-&gt;19</title>
<path fill="none" stroke="black" d="M304.56,-232.34C304.56,-224.99 304.56,-216.51 304.56,-208.43"/>
<polygon fill="black" stroke="black" points="308.06,-208.57 304.56,-198.57 301.06,-208.57 308.06,-208.57"/>
</g>
<!-- 20&#45;&gt;14 -->
<g id="edge23" class="edge">
<title>20-&gt;14</title>
<path fill="none" stroke="black" d="M500.34,-232.34C509.94,-223.8 521.27,-213.72 531.62,-204.52"/>
<polygon fill="black" stroke="black" points="533.73,-207.32 538.88,-198.06 529.08,-202.09 533.73,-207.32"/>
</g>
<!-- 21 -->
<g id="node23" class="node">
<title>21</title>
<polygon fill="none" stroke="black" points="502.45,-196.8 394.67,-196.8 394.67,-155.2 502.45,-155.2 502.45,-196.8"/>
<text text-anchor="middle" x="448.56" y="-180.2" font-family="Times,serif" font-size="14.00">Block21</text>
<text text-anchor="middle" x="448.56" y="-163.4" font-family="Times,serif" font-size="14.00">ELSIF_BLOCK</text>
</g>
<!-- 20&#45;&gt;21 -->
<g id="edge22" class="edge">
<title>20-&gt;21</title>
<path fill="none" stroke="black" d="M469.79,-232.34C466.87,-224.74 463.49,-215.92 460.29,-207.59"/>
<polygon fill="black" stroke="black" points="463.64,-206.55 456.79,-198.47 457.11,-209.06 463.64,-206.55"/>
</g>
<!-- 22 -->
<g id="node24" class="node">
<title>22</title>
<polygon fill="none" stroke="black" points="514.25,-119.2 378.86,-119.2 378.86,-77.6 514.25,-77.6 514.25,-119.2"/>
<text text-anchor="middle" x="446.56" y="-102.6" font-family="Times,serif" font-size="14.00">Block22</text>
<text text-anchor="middle" x="446.56" y="-85.8" font-family="Times,serif" font-size="14.00">RETURN: RETURN</text>
</g>
<!-- 21&#45;&gt;22 -->
<g id="edge24" class="edge">
<title>21-&gt;22</title>
<path fill="none" stroke="black" d="M448.02,-154.74C447.83,-147.39 447.6,-138.91 447.39,-130.83"/>
<polygon fill="black" stroke="black" points="450.89,-130.87 447.13,-120.97 443.89,-131.06 450.89,-130.87"/>
</g>
</g>
</svg>